# xmcd CD database file
#
# Track frame offsets:
#	150
#	27708
#	52397
#	72517
#	97879
#	120315
#	143790
#	162905
#	185152
#	204774
#	226068
#	245558
#
# Disc length: 3598 seconds
#
# Revision: 0
# Processed by: cddbd v1.5.2PL0 Copyright (c) Steve Scherf et al.
# Submitted via: CDex 1.50beta10
#
DISCID=aa0e0c0c
DTITLE=Don Laka - Paradise
DYEAR=2006
DGENRE=Jazz
TTITLE0=Big Day
TTITLE1=Come Into My Paradise
TTITLE2=When Will I C U Again
TTITLE3=Ndugus
TTITLE4=Dikomo Tsa Bogadi
TTITLE5=Lonely Heart
TTITLE6=No Strings Attached
TTITLE7=I'll Always Love U
TTITLE8=So Cold Without U
TTITLE9=New Love
TTITLE10=Kwai Love
TTITLE11=Blues For Mams
EXTD=YEAR: 2006
EXTT0=
EXTT1=
EXTT2=
EXTT3=
EXTT4=
EXTT5=
EXTT6=
EXTT7=
EXTT8=
EXTT9=
EXTT10=
EXTT11=
PLAYORDER=
